<?xml version="1.0" encoding="UTF-8" standalone="no"?>
<!DOCTYPE svg PUBLIC "-//W3C//DTD SVG 1.1//EN" "http://www.w3.org/Graphics/SVG/1.1/DTD/svg11.dtd">
<svg width="100%" height="100%" viewBox="0 0 250 250" version="1.1" xmlns="http://www.w3.org/2000/svg" xmlns:xlink="http://www.w3.org/1999/xlink" xml:space="preserve" xmlns:serif="http://www.serif.com/" style="fill-rule:evenodd;clip-rule:evenodd;stroke-linejoin:round;stroke-miterlimit:2;">
    <g transform="matrix(3.125,0,0,3.125,0,0)">
        <g transform="matrix(1,0,0,1,-10,-10)">
            <circle cx="50.082" cy="24.562" r="5.268" style="fill:white;"/>
        </g>
        <g transform="matrix(1,0,0,1,-10,-10)">
            <path d="M28.209,31.146C28.027,31.08 27.857,31.006 27.695,30.925C24.634,31.007 24.67,35.045 27.8,35.045L38.921,35.045L28.209,31.146Z" style="fill:white;fill-rule:nonzero;"/>
        </g>
        <g transform="matrix(1,0,0,1,-10,-10)">
            <path d="M58.266,55.941L68.672,73.99C69.487,75.401 69.003,77.209 67.592,78.023C66.177,78.84 64.371,78.355 63.557,76.944L58.268,67.673L58.266,55.941Z" style="fill:white;fill-rule:nonzero;"/>
        </g>
        <g transform="matrix(1,0,0,1,-10,-10)">
            <path d="M41.958,55.941L31.552,73.99C30.738,75.401 31.221,77.209 32.633,78.023C34.048,78.84 35.854,78.355 36.668,76.944L41.957,67.673L41.958,55.941Z" style="fill:white;fill-rule:nonzero;"/>
        </g>
        <g transform="matrix(1,0,0,1,-10,-10)">
            <path d="M72.522,30.925C72.361,31.006 72.19,31.08 72.008,31.146L61.296,35.045L72.416,35.045C75.549,35.045 75.583,31.007 72.522,30.925Z" style="fill:white;fill-rule:nonzero;"/>
        </g>
        <g transform="matrix(1,0,0,1,-10,-10)">
            <path d="M70.059,25.788L56.678,30.929L43.541,30.929L30.16,25.788C27.187,24.697 25.774,28.578 28.75,29.661L43.541,35.045L43.545,56.13L43.541,79.785C43.541,81.415 44.865,82.738 46.494,82.738C48.127,82.738 49.449,81.415 49.449,79.785L49.452,56.214L50.767,56.214L50.733,56.13L50.795,56.13L50.767,56.214L50.758,79.785C50.758,81.415 52.08,82.738 53.711,82.738C55.342,82.738 56.663,81.415 56.663,79.785L56.678,38.275L56.676,38.278L56.678,35.045L71.468,29.661C74.444,28.578 73.031,24.697 70.059,25.788Z" style="fill:white;fill-rule:nonzero;"/>
        </g>
        <g transform="matrix(1,0,0,1,-10,-10)">
            <path d="M50,14.151C69.8,14.151 85.85,30.201 85.85,50C85.85,69.799 69.8,85.85 50,85.85C30.201,85.85 14.151,69.799 14.151,50C14.151,30.201 30.201,14.151 50,14.151M50,10C44.602,10 39.363,11.059 34.429,13.146C29.665,15.161 25.388,18.044 21.716,21.716C18.043,25.388 15.16,29.666 13.145,34.429C11.059,39.363 10,44.603 10,50C10,55.398 11.058,60.638 13.145,65.571C15.16,70.335 18.043,74.612 21.716,78.284C25.388,81.957 29.665,84.84 34.429,86.854C39.363,88.942 44.602,90 50,90C55.398,90 60.638,88.942 65.571,86.854C70.335,84.839 74.612,81.957 78.284,78.284C81.957,74.612 84.84,70.335 86.855,65.571C88.942,60.638 90,55.398 90,50C90,44.603 88.942,39.363 86.855,34.429C84.839,29.666 81.957,25.388 78.284,21.716C74.612,18.044 70.335,15.16 65.571,13.146C60.638,11.059 55.398,10 50,10Z" style="fill:white;fill-rule:nonzero;"/>
        </g>
    </g>
</svg>
